<svg width="171" height="24" viewBox="0 0 171 24" fill="none" xmlns="http://www.w3.org/2000/svg">
<path d="M96.496 16.96C99.328 15.184 101.856 12.912 101.856 10.064C101.856 7.92 100.496 6.688 98.512 6.688C96.208 6.688 94.944 8.352 94.944 10.544L96.032 10.624C96.048 8.976 96.816 7.744 98.512 7.744C99.952 7.744 100.736 8.64 100.736 10.048C100.736 13.008 97.264 15.344 94.656 16.976V18H102.368V16.96H96.496ZM107.526 18.16C109.702 18.16 111.43 16.944 111.43 14.832C111.43 13.2 110.374 12.272 109.158 12.048C109.99 11.776 110.838 10.88 110.838 9.536C110.838 7.712 109.302 6.688 107.542 6.688C105.606 6.688 104.15 7.872 104.15 9.808L105.222 9.888C105.238 8.512 106.198 7.744 107.59 7.744C108.774 7.744 109.734 8.352 109.734 9.664C109.734 11.056 108.598 11.664 106.982 11.664V12.592C108.422 12.592 110.326 12.848 110.326 14.736C110.326 16.256 109.126 17.104 107.542 17.104C105.862 17.104 104.694 16.192 104.694 14.608L103.606 14.672C103.606 16.928 105.302 18.16 107.526 18.16ZM121.427 9.984C120.627 9.984 119.667 10.256 119.091 11.296V10.112H117.987V18H119.091V13.6C119.091 11.888 119.987 10.976 121.203 10.976C121.539 10.976 121.875 11.056 122.243 11.216L122.787 10.32C122.355 10.08 121.907 9.984 121.427 9.984ZM129.994 13.664C129.994 11.872 128.986 9.984 126.57 9.984C124.282 9.984 123.066 11.872 123.066 14.096C123.066 16.336 124.298 18.128 126.698 18.128C127.914 18.128 128.826 17.776 129.754 16.8L128.986 16.128C128.266 16.896 127.578 17.12 126.714 17.12C125.162 17.12 124.202 16.08 124.17 14.352H129.946C129.978 14.16 129.994 13.888 129.994 13.664ZM126.57 10.912C128.026 10.912 128.842 11.888 128.922 13.168C128.922 13.312 128.938 13.392 128.938 13.424H124.17C124.266 12.032 125.146 10.912 126.57 10.912ZM134.302 18H135.246L138.478 10.112H137.262L134.766 16.592L132.286 10.112H131.086L134.302 18ZM140.157 8.48H141.437V6.848H140.157V8.48ZM140.253 18H141.357V10.112H140.253V18ZM150.557 13.664C150.557 11.872 149.549 9.984 147.133 9.984C144.845 9.984 143.629 11.872 143.629 14.096C143.629 16.336 144.861 18.128 147.261 18.128C148.477 18.128 149.389 17.776 150.317 16.8L149.549 16.128C148.829 16.896 148.141 17.12 147.277 17.12C145.725 17.12 144.765 16.08 144.733 14.352H150.509C150.541 14.16 150.557 13.888 150.557 13.664ZM147.133 10.912C148.589 10.912 149.405 11.888 149.485 13.168C149.485 13.312 149.501 13.392 149.501 13.424H144.733C144.829 12.032 145.709 10.912 147.133 10.912ZM154.096 18H155.12L157.248 11.632L159.344 18H160.384L162.688 10.112H161.52L159.808 16.336L157.744 10.112H156.736L154.656 16.336L152.96 10.112H151.776L154.096 18ZM166.996 18.128C168.516 18.128 169.828 17.328 169.828 15.728C169.828 12.736 165.268 13.92 165.268 12.048C165.268 11.36 165.892 10.96 166.868 10.96C167.844 10.96 168.468 11.408 168.852 12.112L169.732 11.632C169.188 10.512 168.164 9.984 166.9 9.984C165.316 9.984 164.196 10.832 164.196 12.208C164.196 15.008 168.74 13.696 168.74 15.792C168.74 16.624 168.052 17.152 166.98 17.152C165.748 17.152 164.98 16.464 164.692 15.648L163.764 16.064C164.18 17.328 165.444 18.128 166.996 18.128Z" fill="#202324"/>
<path d="M9 15.9525L13.635 18.75L12.405 13.4775L16.5 9.93L11.1075 9.4725L9 4.5L6.8925 9.4725L1.5 9.93L5.595 13.4775L4.365 18.75L9 15.9525Z" fill="#FFD200"/>
<path d="M27 15.9525L31.635 18.75L30.405 13.4775L34.5 9.93L29.1075 9.4725L27 4.5L24.8925 9.4725L19.5 9.93L23.595 13.4775L22.365 18.75L27 15.9525Z" fill="#FFD200"/>
<path d="M45 15.9525L49.635 18.75L48.405 13.4775L52.5 9.93L47.1075 9.4725L45 4.5L42.8925 9.4725L37.5 9.93L41.595 13.4775L40.365 18.75L45 15.9525Z" fill="#FFD200"/>
<path d="M63 15.9525L67.635 18.75L66.405 13.4775L70.5 9.93L65.1075 9.4725L63 4.5L60.8925 9.4725L55.5 9.93L59.595 13.4775L58.365 18.75L63 15.9525Z" fill="#FFD200"/>
<path d="M88.5 9.93L83.1075 9.465L81 4.5L78.8925 9.4725L73.5 9.93L77.595 13.4775L76.365 18.75L81 15.9525L85.635 18.75L84.4125 13.4775L88.5 9.93ZM81 14.55V7.575L82.2825 10.605L85.5675 10.89L83.0775 13.05L83.8275 16.26L81 14.55Z" fill="#FFD200"/>
</svg>
